<?xml version="1.0" encoding="utf-8"?>
<!-- Generator: Adobe Illustrator 21.0.0, SVG Export Plug-In . SVG Version: 6.00 Build 0)  -->
<svg version="1.1" xmlns="http://www.w3.org/2000/svg" xmlns:xlink="http://www.w3.org/1999/xlink" x="0px" y="0px"
	 viewBox="0 0 215.6 157.1" style="enable-background:new 0 0 215.6 157.1;" xml:space="preserve">
<style type="text/css">
	.st0{display:none;}
	.st1{display:inline;fill:#070000;}
	.st2{display:inline;}
	.st3{fill:#FFFFFF;}
	.st4{fill:#F9F7F7;}
	.st5{font-family:'BrushScriptMT';}
	.st6{font-size:78.2455px;}
	.st7{fill:#F9F9F9;}
	.st8{font-family:'ArialRoundedMTBold';}
	.st9{font-size:12px;}
	.st10{display:none;fill:#F9F9F9;enable-background:new    ;}
	.st11{fill:#020202;}
	.st12{fill:#020000;}
	.st13{display:none;fill:#020000;enable-background:new    ;}
</style>
<g id="Layer_1">
	<g id="Layer_2_1_" class="st0">
		<rect class="st1" width="215.6" height="157.1"/>
	</g>
	<g id="Layer_1_1_" class="st0">
		<title>logo-dark</title>
		<g id="Layer_2" class="st2">
			<g id="Layer_1-2">
				<path class="st3" d="M81.9,123c-8.7-11.5-27.3-12-49.5-10.4c-7.9,0.6-14.3-1.6-15.9-4c-2-3-4.7-2.1-8.1-0.8s-4.7-3.5-4.7-3.5
					c1.5,1.2,3.7,0.9,4.9-0.6c0.1-0.1,0.2-0.2,0.2-0.4c2.3-3.1,0.6-7.2-3.9-6.4c-4.8,0.7-5.9,6.5-4.1,10.8c2.3,5.5,7.2,8.4,25.2,7
					c24.5-2,45.5-2.7,54.6,9.3c0.3,0.3,0.8,0.4,1.1,0.1C82.1,123.8,82.2,123.3,81.9,123L81.9,123z M8.1,102.4
					c-0.7,0.3-1.5,0.1-1.9-0.6c0,0,0,0,0-0.1c2.4-1.6-0.2-4-0.2-4C9.3,97.8,9.6,101.9,8.1,102.4z M12.4,108.2c0,0,1.3-1.1,2.7,0.7
					c1,1.2,2.1,2.3,3.3,3.2C12.6,111.2,12.4,108.2,12.4,108.2L12.4,108.2z M133.8,124.1c0.3,0.3,0.8,0.2,1.1-0.2
					c9.1-12,30.1-11.3,54.6-9.3c18,1.5,22.9-1.4,25.3-7c1.8-4.3,0.6-10.1-4.1-10.8c-4.6-0.7-6.2,3.4-3.9,6.4c1,1.7,3.1,2.2,4.7,1.2
					c0.1-0.1,0.3-0.2,0.4-0.2c0,0-1.3,4.8-4.7,3.5s-6.1-2.3-8.1,0.8c-1.6,2.4-8,4.6-15.9,4c-22.2-1.5-40.7-1.1-49.5,10.5
					C133.4,123.4,133.5,123.8,133.8,124.1L133.8,124.1z M209.6,97.8c0,0-2.6,2.3-0.1,4c-0.3,0.7-1.1,1-1.8,0.7c0,0,0,0-0.1,0
					C206,101.9,206.3,97.8,209.6,97.8L209.6,97.8z M197.2,111.6c1.2-0.8,2.4-1.8,3.3-2.9c1.4-1.7,2.7-0.6,2.7-0.6
					S203,110.8,197.2,111.6L197.2,111.6z M29.9,59.8c0.3,0.6,0.3,1.2,0,1.8s-0.7,1.1-1.2,1.5c-0.6,0.5-1.2,0.9-1.9,1.2
					c-0.7,0.3-1.4,0.5-2.2,0.6c-0.7,0.1-1.3,0.1-2,0c-0.5-0.1-1-0.4-1.3-0.8c-0.4-1-0.5-2.1-0.2-3.1c0.3-1.6,0.8-3.2,1.6-4.7
					c1-1.9,2.2-3.7,3.6-5.3c1.7-1.9,3.6-3.6,5.8-5c2.5-1.6,5.2-2.9,8-3.7c3.4-1,6.9-1.5,10.4-1.5c3.2-0.1,6.3,0.4,9.3,1.6
					c2.1,0.9,3.9,2.3,5.2,4.2c1.1,1.7,1.7,3.7,1.7,5.7c0,2.2-0.5,4.3-1.3,6.3c-1,2.2-2.3,4.2-3.9,5.9c-1.7,1.8-3.8,3.4-6,4.5
					c1.9,0.8,3.4,2.3,4.2,4.1c0.7,1.8,0.9,3.9,0.4,5.8c-0.6,2.3-1.6,4.5-3,6.4c-1.6,2.3-3.6,4.3-5.8,6c-2.5,1.9-5.3,3.3-8.2,4.4
					c-3.2,1.2-6.7,1.7-10.1,1.7c-0.8,0.1-1.7-0.1-2.4-0.6C30.2,96.5,30,96,30,95.5c0.1-0.5,0.4-1,0.8-1.3c0.5-0.4,1.1-0.6,1.8-0.6
					c2.5,0,4.9-0.6,7.1-1.7c2.1-1.1,4-2.4,5.6-4.1c1.5-1.6,2.8-3.4,3.8-5.4c0.8-1.7,1.4-3.5,1.6-5.4c0.2-1.4-0.1-2.9-0.8-4.1
					c-0.8-1.2-2.2-1.8-3.6-1.7c-0.7,0.1-1.3-0.2-1.8-0.6c-0.4-0.3-0.5-0.8-0.5-1.3c0.1-0.5,0.4-1,0.9-1.3c0.7-0.4,1.5-0.6,2.3-0.6
					c1.4-0.1,2.8-0.7,3.8-1.7c1.3-1.3,2.4-2.7,3.2-4.4c0.9-1.8,1.6-3.7,2-5.7c0.4-1.9,0.4-3.8,0.1-5.7c-0.3-1.7-1-3.2-2.2-4.4
					c-1.4-1.3-3.3-1.9-5.2-1.7c-3.1-0.1-6.3,0.5-9.2,1.8c-2.3,1-4.5,2.5-6.3,4.3c-1.4,1.5-2.5,3.2-3.2,5.2
					C29.4,56.7,29.4,58.4,29.9,59.8L29.9,59.8z M36.4,50.8c0.2-0.7,0.8-1.1,1.5-1.3c0.8-0.1,1.6,0,2.3,0.3c0.9,0.4,1.8,0.9,2.5,1.5
					c0.8,0.7,1.6,1.4,2.3,2.2c0.6,0.8,1.1,1.6,1.5,2.5c0.3,0.8,0.4,1.7,0.2,2.5c-0.4,1.2-1,2.3-1.7,3.4c-1,1.6-2.2,3.5-3.5,5.6
					c-1.4,2.1-2.9,4.4-4.5,6.8s-3.1,4.7-4.5,7c-1.4,2.3-2.6,4.3-3.6,6.2c-0.8,1.4-1.4,2.8-1.8,4.3c-0.1,0.7-0.5,1.3-1.1,1.7
					c-0.5,0.3-1.1,0.4-1.7,0.2c-0.6-0.2-1.1-0.6-1.4-1.2c-0.4-0.7-0.6-1.6-0.4-2.4c0.4-2.7,0.9-5.4,1.6-8c0.7-2.8,1.6-5.5,2.5-8.1
					s1.9-5.3,2.9-7.9c1-2.5,2-4.8,2.9-6.9c0.9-2.1,1.7-3.9,2.4-5.3C35.7,52.4,36.1,51.3,36.4,50.8L36.4,50.8z M85.3,70.9
					c0.4-0.8,1.2-1.4,2.1-1.4c1-0.1,2,0,3,0.4s1.8,1,2.5,1.8c0.7,0.9,0.8,2,0.5,3c-0.3,0.9-0.7,1.9-1.2,2.7
					c-0.6,1.1-1.2,2.1-1.8,3.2l-2,3.3c-0.6,0.9-1.1,1.9-1.5,2.9c-0.3,0.6-0.5,1.3-0.6,2c0,0.5,0.3,0.7,1,0.6
					c1.1-0.1,2.1-0.6,2.9-1.4c1-0.8,1.8-1.7,2.6-2.7c0.8-1.1,1.5-2.2,2.2-3.4c0.6-1,1.1-2.1,1.6-3.2c0.3-0.8,0.8-1.5,1.5-1.9
					c0.5-0.3,1.1-0.4,1.6-0.3c0.5,0.2,0.9,0.7,1,1.2c0.1,0.9,0,1.8-0.4,2.6c-0.5,1.4-1.1,2.7-1.8,3.9c-0.9,1.6-1.9,3.1-3,4.5
					c-1.2,1.4-2.5,2.6-4.1,3.6c-1.5,1-3.2,1.5-5,1.5c-1.6,0.1-3.1-0.6-3.8-2c-0.7-1.5-1.1-3.1-1.1-4.8c-1.1,1.8-2.6,3.4-4.2,4.8
					c-1.5,1.3-3.5,1.9-5.4,1.7c-1.9-0.1-3.7-0.8-5.2-2.1c-1.3-1.2-2.1-2.8-2.5-4.5c-0.4-2-0.4-4,0-6c0.4-2.3,1.2-4.5,2.3-6.5
					c1.2-2.2,2.7-4.3,4.4-6.1c1.8-1.9,4-3.4,6.4-4.6c2.6-1.2,5.4-1.9,8.2-2.1c3.3-0.2,6.7,0.2,9.8,1.3c0.7,0.2,1.4,0.6,1.8,1.3
					c0.4,0.5,0.6,1,0.5,1.6c-0.1,0.5-0.5,1-1,1.2c-0.8,0.3-1.7,0.3-2.6,0.1c-1.9-0.5-3.8-0.5-5.7-0.2c-1.8,0.3-3.5,1-5.1,1.9
					s-3,2-4.3,3.3s-2.4,2.7-3.4,4.2c-0.9,1.4-1.8,2.8-2.4,4.4c-0.5,1.3-0.9,2.6-1.2,4c-0.2,1-0.2,2.1,0.1,3.1
					c0.2,0.7,0.8,1.3,1.5,1.4c1,0.2,1.9-0.1,2.7-0.8c1-0.8,1.8-1.7,2.5-2.8c0.9-1.3,1.6-2.6,2.3-4c0.7-1.5,1.3-2.9,1.9-4.3
					c0.4-1.4,0.8-2.6,1.2-3.8C84.5,72.6,84.9,71.7,85.3,70.9L85.3,70.9z M117.1,73.8c-0.3,1-0.7,1.9-1.2,2.8
					c-0.6,1.1-1.2,2.2-1.9,3.4l-2,3.4c-0.6,1-1.1,2-1.6,3.1c-0.3,0.7-0.5,1.4-0.6,2.2c0,0.5,0.3,0.8,1,0.7c1-0.1,2-0.6,2.8-1.3
					c1-0.8,1.8-1.7,2.6-2.7c0.8-1.1,1.6-2.2,2.2-3.4c0.6-1,1.1-2.1,1.6-3.2c0.3-0.8,0.8-1.5,1.5-1.9c0.5-0.3,1.1-0.4,1.6-0.3
					c0.5,0.2,0.9,0.7,1,1.2c0.1,0.9,0,1.8-0.4,2.6c-0.5,1.4-1.1,2.7-1.8,3.9c-0.9,1.6-1.9,3.1-3,4.5c-1.2,1.4-2.5,2.6-4.1,3.6
					c-1.5,1-3.2,1.5-5,1.5c-1.3,0.1-2.6-0.3-3.6-1.2c-0.9-0.8-1.4-1.9-1.7-3.1c-0.3-1.4-0.4-2.9-0.2-4.3c0.2-1.6,0.4-3.3,0.8-4.9
					s0.8-3.2,1.4-4.8c0.5-1.6,1-2.9,1.4-4v-0.1c0.3-0.8,0.2-1.8-0.3-2.6c-0.5-0.7-1.1-1.3-1.7-1.8c-0.3,0.9-0.8,1.9-1.3,3.1
					s-1.1,2.5-1.6,3.7c-0.5,1.3-1,2.5-1.5,3.6l-1.2,2.8c-0.3,0.8-0.8,1.4-1.6,1.8c-0.5,0.3-1.1,0.3-1.6,0s-0.8-0.8-0.9-1.3
					c-0.2-0.7,0-1.5,0.4-2.1c0.3-0.5,0.7-1.2,1.1-2.2l1.4-3.1c0.5-1.1,1-2.2,1.5-3.4l1.4-3.3c0.4-1,0.8-1.8,1.1-2.6
					c0.3-0.7,0.4-1.1,0.5-1.3c0-1.2,0.2-2.4,0.6-3.5c0.2-0.8,0.8-1.5,1.5-2c0.5-0.3,1.2-0.4,1.8-0.3c0.5,0.2,1,0.6,1.2,1.1
					c0.2,0.7,0.1,1.5-0.2,2.2c-0.4,0.7-0.6,1.4-0.6,2.2c0.1,0.6,0.3,1.2,0.8,1.6c0.6,0.6,1.3,1.1,2,1.6c0.9,0.6,1.9,1.3,3.2,2.2
					c0.6,0.3,1.1,0.6,1.6,1c1,0.7,1.6,1.8,1.9,3C117.3,72.6,117.3,73.2,117.1,73.8L117.1,73.8z M152.6,78.9c0.4-0.7,1-1.2,1.8-1.5
					c0.6-0.2,1.2-0.2,1.8,0c0.5,0.2,0.9,0.6,1.1,1.1c0.2,0.7,0,1.5-0.4,2.1c-0.6,0.9-1.3,1.8-2.1,2.6c-1,0.9-2,1.7-3.2,2.3
					c-1.3,0.7-2.7,1.2-4.1,1.4c-1.6,0.3-3.3,0.3-4.9,0c-1.9,1.9-4,3.6-6.3,5c-2,1.3-4.4,2-6.7,2c-2.1,0.1-4.1-0.4-5.8-1.5
					c-1.4-1-2.5-2.5-3.1-4.1c-0.7-2-1-4-0.9-6.1c0.1-2.5,0.4-5,0.9-7.5c0.6-2.8,1.3-5.6,2.2-8.3c2.9-9,3.7-12,8-20.7
					c0.7-1.4,1.1-2.3,1.4-2.8c0.2-0.7,0.8-1.2,1.5-1.3c0.8-0.1,1.6,0,2.3,0.3c0.9,0.4,1.8,0.9,2.6,1.5c0.9,0.6,1.6,1.4,2.3,2.2
					c0.6,0.8,1.1,1.6,1.5,2.6c0.3,0.8,0.4,1.7,0.2,2.5c-0.4,1.2-1,2.3-1.6,3.3c-4.4,7.5-4.9,6.6-8.9,14c-1.5,2.8-2.8,5.4-4,8
					c-1,2.2-1.9,4.5-2.5,6.8c-0.5,1.5-0.5,3.2-0.2,4.8c0.4,1.2,1.4,1.8,3.1,1.8c1.3-0.1,2.6-0.7,3.5-1.6c1.3-1.2,2.5-2.6,3.4-4.2
					c-1.1-1-1.9-2.3-2.4-3.7c-0.5-1.5-0.6-3-0.6-4.5c0.2-3.2,1.3-6.3,3.2-8.8c0.9-1.3,2.1-2.3,3.4-3.2c1.2-0.8,2.6-1.4,4.1-1.6
					l0.5-0.1c0.2,0,0.4,0,0.6,0c0.6,0,1.2,0.1,1.8,0.2c0.7,0.1,1.4,0.3,2.1,0.6c0.7,0.3,1.4,0.8,2,1.3c0.7,0.6,1.2,1.4,1.4,2.3
					c0.3,1.1,0.4,2.3,0.4,3.4c-0.1,1.7-0.5,3.3-1.1,4.9c-0.6,1.5-1.2,2.9-2,4.2c-0.9,1.6-1.9,3.1-3,4.5
					C148.5,82.9,151.1,81.3,152.6,78.9L152.6,78.9z M140.9,66.6L140.9,66.6c-0.6,0-1.1,0.5-1.8,1.4c-0.7,1-1.2,2.1-1.6,3.3
					c-0.5,1.4-0.7,2.8-0.8,4.2c-0.1,1.4,0.2,2.8,0.8,4c0.8-1.5,1.5-3.1,2.1-4.6c0.5-1.3,1-2.7,1.4-4.1c0.3-1,0.4-2,0.5-3
					C141.5,67,141.3,66.6,140.9,66.6L140.9,66.6z M170.5,80.2c-1.8,0.7-3.6,1.1-5.5,1.2c-1.3,0.1-2.7,0-4-0.3
					c-0.4,1.1-0.6,2.2-0.8,3.3c-0.2,0.9-0.2,1.9,0,2.8c0.2,0.7,0.6,1.4,1.1,1.9c0.7,0.5,1.5,0.7,2.4,0.7c2.1,0,4.2-0.4,6.1-1.2
					c1.7-0.7,3.3-1.7,4.7-2.9c2.2-1.9,4-4.3,5.1-7c0.3-0.8,0.8-1.5,1.5-1.9c0.5-0.3,1.1-0.4,1.6-0.3c0.5,0.2,0.9,0.7,1,1.2
					c0.1,0.9,0,1.8-0.4,2.6c-0.6,1.4-1.3,2.7-2.2,3.9c-1.1,1.6-2.5,3.1-4,4.4c-1.7,1.5-3.7,2.7-5.8,3.6c-2.3,1-4.9,1.5-7.4,1.5
					c-5.4,0.4-10.2-3.2-11.2-8.5c-0.6-2.6-0.5-5.3,0.1-7.9c0.7-2.8,1.9-5.5,3.5-7.9c1.8-2.5,4-4.6,6.7-6.1c2.9-1.7,6.2-2.5,9.5-2.4
					c1.9-0.1,3.7,0.3,5.4,1.2c1.2,0.7,2,1.8,2.4,3.1c0.4,1.4,0.4,2.8,0,4.2c-0.4,1.6-1.1,3.1-2,4.4c-1,1.4-2.2,2.7-3.5,3.9
					C173.6,78.7,172.1,79.6,170.5,80.2L170.5,80.2z M169.1,76.8c1.6-0.6,3-1.6,4.2-2.9c1.1-1.1,1.9-2.4,2.5-3.8
					c0.5-1.1,0.6-2.3,0.4-3.4c-0.2-0.9-1-1.5-1.9-1.4c-1,0.1-2,0.4-2.8,1.1c-1.1,0.8-2.2,1.7-3.1,2.8c-1.1,1.2-2.1,2.5-3,3.9
					c-1,1.4-1.8,2.9-2.6,4.5c1,0.1,1.9,0.2,2.9,0.1C166.8,77.5,168,77.2,169.1,76.8L169.1,76.8z M200.3,73.8c-0.3,1-0.7,1.9-1.2,2.8
					c-0.6,1.1-1.2,2.2-1.9,3.4l-2,3.4c-0.6,1-1.1,2-1.6,3.1c-0.3,0.7-0.5,1.4-0.6,2.2c0,0.5,0.3,0.8,1,0.7c1-0.1,2-0.6,2.8-1.3
					c1-0.8,1.8-1.7,2.6-2.7c0.8-1.1,1.6-2.2,2.2-3.4c0.6-1,1.1-2.1,1.6-3.2c0.3-0.8,0.8-1.5,1.5-1.9c0.5-0.3,1.1-0.4,1.6-0.3
					c0.5,0.2,0.9,0.7,1,1.2c0.1,0.9,0,1.8-0.4,2.6c-0.5,1.4-1.1,2.7-1.9,4c-0.9,1.6-1.9,3.1-3,4.5c-1.2,1.4-2.5,2.6-4.1,3.6
					c-1.5,1-3.2,1.5-5,1.5c-1.3,0.1-2.6-0.3-3.6-1.2c-0.9-0.8-1.4-1.9-1.7-3.1c-0.3-1.4-0.4-2.9-0.2-4.3c0.2-1.6,0.4-3.3,0.8-4.9
					c0.4-1.6,0.8-3.2,1.4-4.8c0.5-1.6,1-2.9,1.4-4v-0.1c0.3-0.8,0.2-1.8-0.3-2.6c-0.5-0.7-1.1-1.3-1.7-1.8c-0.3,0.9-0.8,1.9-1.3,3.1
					s-1,2.5-1.5,3.7c-0.5,1.3-1,2.5-1.5,3.6l-1.2,2.8c-0.3,0.8-0.8,1.4-1.6,1.8c-0.5,0.3-1.1,0.3-1.6,0s-0.8-0.8-0.9-1.3
					c-0.2-0.7,0-1.5,0.4-2.1c0.3-0.5,0.7-1.2,1.1-2.2l1.4-3.1c0.5-1.1,1-2.2,1.5-3.4l1.4-3.3c0.4-1,0.8-1.8,1.1-2.6s0.4-1.1,0.5-1.3
					c0-1.2,0.2-2.4,0.6-3.5c0.2-0.8,0.8-1.5,1.5-2c0.5-0.3,1.2-0.4,1.8-0.3c0.5,0.2,1,0.6,1.2,1.1c0.2,0.7,0.1,1.5-0.2,2.2
					c-0.4,0.7-0.6,1.4-0.6,2.2c0.1,0.6,0.3,1.2,0.8,1.6c0.6,0.6,1.3,1.1,2,1.6c0.9,0.6,1.9,1.3,3.2,2.2c0.6,0.3,1.1,0.6,1.6,1
					c1,0.7,1.6,1.8,1.9,3C200.5,72.6,200.5,73.2,200.3,73.8L200.3,73.8z M74.1,10.5c0.8-0.4,1.2-0.5,2-0.9L77,12
					c0.5,1.2,0.1,2.1-1.3,2.7s-2.3,0.3-2.9-0.9L71,10.1c-0.6-1.2-0.1-2.2,1.4-2.8s2.5-0.3,3,0.9l0.3,0.7l-1.4,0.6L74,8.7
					c-0.1-0.4-0.5-0.6-0.9-0.5c0,0-0.1,0-0.1,0.1c-0.4,0.1-0.6,0.5-0.5,0.8c0,0.1,0,0.2,0.1,0.2l1.8,3.9c0.2,0.4,0.7,0.5,1.1,0.2
					c0.3-0.2,0.4-0.5,0.3-0.8l-0.6-1.4l-0.7,0.3L74.1,10.5z M80,8c0.8-0.3,1.2-0.4,2-0.7l0.3,1.1c-0.8,0.3-1.2,0.4-2,0.7l0.8,2.2
					c1-0.3,1.5-0.5,2.4-0.8l0.3,1.1c-1.5,0.5-2.3,0.7-3.8,1.3l-2.8-7.5C79,4.8,79.8,4.5,81.5,4l0.3,1.1c-1.1,0.3-1.6,0.5-2.6,0.8
					L80,8z M86.1,5l1.5,5.6L86.3,11l-2.2-7.8l2-0.5c1.1,1.7,1.7,2.5,2.7,4.3l-1.1-4.7L89.1,2l1.7,7.8l-1.5,0.3C88.1,8,87.4,7,86.1,5
					L86.1,5z M91.4,1.5c2-0.4,2.9-0.5,4.9-0.8l0.2,1.1L94.8,2l1,6.8L94.4,9l-1.1-6.8l-1.6,0.3L91.4,1.5z M98.7,0.4l1.6-0.2l0.6,6.8
					c1-0.1,1.4-0.1,2.4-0.2l0.1,1.1c-1.5,0.1-2.3,0.1-3.8,0.3L98.7,0.4z M107,3.4c0.8,0,1.3,0,2.1,0v1.1c-0.8,0-1.2,0-2.1,0v2.3
					c1,0,1.5,0,2.6,0V8c-1.6,0-2.4,0-4,0l-0.2-8c1.8,0,2.6,0,4.4,0v1.1c-1.1,0-1.6,0-2.7,0L107,3.4z M115.3,6
					c0.6-2.2,0.9-3.3,1.6-5.6c0.9,0.1,1.3,0.1,2.2,0.3l-1.1,8l-1.4-0.2l0.7-5.7c-0.7,2.2-1,3.3-1.7,5.6l-1.4-0.1
					c-0.2-2.3-0.4-3.4-0.7-5.7l-0.4,5.6L112,8.1l0.4-8c0.9,0,1.3,0.1,2.2,0.2C114.9,2.6,115,3.7,115.3,6L115.3,6z M122.9,4.8
					c0.8,0.2,1.3,0.2,2.1,0.4l-0.3,1.1c-0.8-0.2-1.2-0.2-2.1-0.4l-0.4,2.3c1,0.2,1.5,0.3,2.5,0.5l-0.2,1.1c-1.6-0.3-2.3-0.5-3.9-0.8
					l1.3-7.9c1.7,0.3,2.6,0.5,4.3,0.8L126,3.1c-1.1-0.2-1.6-0.3-2.7-0.5L122.9,4.8z M129.7,5.1l-1.5,5.6l-1.3-0.3l1.9-7.8l2,0.5
					c0.1,2,0.2,3,0.2,5l1.4-4.6l1.3,0.5l-2.4,7.6l-1.4-0.4C129.9,8.8,129.9,7.6,129.7,5.1L129.7,5.1z M136.1,6.1l0.4-1.1l1.5,0.5
					l-0.4,1l-1.1,1l-0.6-0.2l0.8-0.9L136.1,6.1z M142.7,7.3c1.5,0.6,1.9,1.7,1.3,2.8l-0.1,0.2l-1.4-0.6l0.1-0.3
					c0.2-0.3,0.1-0.8-0.3-0.9c0,0-0.1,0-0.1-0.1c-0.3-0.2-0.8-0.1-1,0.2c0,0.1-0.1,0.1-0.1,0.2c-0.6,1.5,2,3,1.1,5.1
					c-0.5,1.2-1.5,1.5-2.9,0.9s-1.8-1.5-1.3-2.7l0.2-0.5l1.3,0.6l-0.2,0.5c-0.1,0.4,0.2,0.9,0.6,1c0.3,0.1,0.7-0.1,0.9-0.3
					c0.7-1.5-2-3-1.1-5.1C140.2,7,141.3,6.6,142.7,7.3L142.7,7.3z M127.8,36.1c-1.1-0.3-2.2-0.7-3.2-1.3l-1.3,0.4
					c1.1,0.7,2.3,1.3,3.6,1.7c1.3,0.3,2.1,0.2,2.1-0.2S128.9,36.2,127.8,36.1L127.8,36.1z M125.4,33c-0.1-0.6-0.6-1.1-1.3-1H124
					c0,0-9.6,0.8-16,1.3s-18.7-1.4-18.7-1.4c-2.7-0.5-3.1,0.9-3.1,0.9c-0.5,0.9-0.2,2,0.7,2.4c0.1,0.1,0.3,0.1,0.4,0.2
					c4.5,1.4,10.1,1.8,18.8,1.7c6.1-0.2,12.2-1.1,18.1-2.7C124.2,34.4,125.5,34.1,125.4,33L125.4,33z M88.6,34.5
					c-0.4,0-0.8-0.3-0.8-0.8s0.3-0.8,0.8-0.8c0.4,0,0.8,0.3,0.8,0.8l0,0C89.4,34.1,89.1,34.5,88.6,34.5L88.6,34.5z M122.4,33.9
					c-0.3,0-0.5-0.2-0.5-0.6s0.2-0.5,0.6-0.5c0.3,0,0.5,0.2,0.5,0.5S122.7,33.9,122.4,33.9L122.4,33.9z M94.1,21.4l14.7,7.9
					c0.7,0.4,1.5,0.4,2.2,0.2l1.2-0.4c0.3-0.1,0.6-0.1,0.9,0.1l5.2,3l3.5-0.3L96.1,17.5c-0.2-0.1-0.5-0.1-0.6,0.1l-1.8,2.6
					C93.5,20.7,93.6,21.2,94.1,21.4C94,21.4,94,21.4,94.1,21.4L94.1,21.4z M95.8,18.2c0.1-0.1,0.2-0.2,0.4-0.1l15.6,8.6l-1.5,2.3
					l0.9-2l-15.1-8.4l-1.2,1.1L95.8,18.2z M89.5,107.8c2.5,0,3.7,1.3,3.7,3.6v0.5h-2.4v-0.6c0-1-0.4-1.4-1.3-1.4s-1.3,0.4-1.3,1.4
					c0,2.9,4.9,3.5,4.9,7.6c0,2.3-1.3,3.6-3.8,3.6s-3.8-1.3-3.8-3.6V118h2.4v1c0,1,0.5,1.4,1.3,1.4s1.3-0.4,1.3-1.4
					c0-2.9-4.9-3.5-4.9-7.6C85.8,109.1,87,107.8,89.5,107.8z M99.9,122.2h-2.5V108h2.5v6.1h2.9V108h2.6v14.3h-2.6v-6.1H100
					L99.9,122.2L99.9,122.2z M109.6,111.4c0-2.3,1.3-3.6,3.8-3.6s3.8,1.3,3.8,3.6v7.4c0,2.3-1.3,3.6-3.8,3.6s-3.8-1.3-3.8-3.6V111.4
					z M112.2,119c0,1,0.5,1.4,1.3,1.4s1.3-0.4,1.3-1.4v-7.7c0-1-0.5-1.4-1.3-1.4s-1.3,0.4-1.3,1.4V119z M129.1,111.5v1.9
					c0,2.3-1.2,3.5-3.8,3.5h-1.2v5.3h-2.5V108h3.7C127.9,108,129.1,109.2,129.1,111.5z M124.1,110v4.8h1.2c0.8,0,1.2-0.3,1.2-1.3
					v-2.1c0-1-0.4-1.3-1.2-1.3L124.1,110z M58.3,133.6c2.3-1.3,3.5-2,5.7-3.4c0.4,0.4,0.6,0.7,1.1,1.1c-2.7,1.8-4.1,2.7-7,4.3
					c-0.8-0.8-1.2-1.3-2-2.1c1.9-2.7,2.9-4,4.9-6.6c0.5,0.5,0.7,0.8,1.1,1.3C60.6,130.3,59.8,131.4,58.3,133.6z M66.9,133
					c0.5,0.4,0.7,0.7,1.3,1.1l-5.2,6c-0.6-0.5-0.8-0.8-1.4-1.3L66.9,133z M70.3,138.7l-3.5,4.6c-0.5-0.4-0.8-0.6-1.3-1l4.9-6.3
					c0.7,0.5,1,0.8,1.7,1.3c-0.6,1.9-0.8,2.9-1.3,4.9l2.7-3.9l1.2,0.8l-4.4,6.7c-0.6-0.4-0.9-0.6-1.6-1.1
					C69.3,142.2,69.6,141,70.3,138.7L70.3,138.7z M76.8,140.4c1.7,1,2.6,1.5,4.4,2.4l-0.5,1c-0.6-0.3-0.9-0.5-1.5-0.8l-3.2,6.1
					c-0.7-0.3-1-0.5-1.6-0.9l3.4-6c-0.6-0.3-0.9-0.5-1.5-0.9L76.8,140.4z M84.9,153c-0.7-0.2-1-0.4-1.7-0.6c0.1-0.6,0.1-0.9,0.2-1.5
					c-0.8-0.3-1.2-0.5-2-0.8l-0.9,1.2l-1.6-0.6c2-2.6,3-3.9,4.9-6.6c0.9,0.4,1.3,0.6,2.2,0.9C85.5,148.2,85.3,149.8,84.9,153
					L84.9,153z M82.1,149.2l1.6,0.6c0.3-1.6,0.4-2.4,0.8-4.1C83.5,147.1,83,147.8,82.1,149.2L82.1,149.2z M91.2,150.4
					c0.9,0.3,1.4,0.4,2.3,0.6l-0.6,2.5c-0.3,1.2-1.3,1.8-3.1,1.3s-2.4-1.5-2-2.7l1.3-4c0.4-1.2,1.4-1.7,2.9-1.3s2.1,1.3,1.8,2.5
					l-0.2,0.8l-1.5-0.4l0.2-0.8c0.1-0.6-0.1-0.8-0.6-1c-0.4-0.2-0.8,0-1,0.4v0.1l-1.2,4.1c-0.2,0.6,0.1,0.9,0.7,1s0.9,0,1.1-0.5
					l0.4-1.4l-0.8-0.2L91.2,150.4z M98,151.6c0.9,0.1,1.4,0.2,2.3,0.3l-0.1,1.1c-0.9-0.1-1.4-0.2-2.3-0.3l-0.4,2.3
					c1.2,0.2,1.8,0.3,3,0.4l-0.1,1.1c-1.9-0.2-2.9-0.4-4.8-0.7L97,148c1.7,0.3,2.6,0.4,4.3,0.6l-0.1,1.1c-1.1-0.1-1.7-0.2-2.8-0.4
					L98,151.6z M109.5,157.1h-1.8l0.1-8h1.6l0.1,3.4c0.8,0,1.1,0,1.9-0.1l-0.2-3.4l1.6-0.1l0.6,8l-1.8,0.1l-0.2-3.4
					c-0.8,0-1.2,0-1.9,0.1L109.5,157.1z M122.2,155.7l-1.8,0.3l-0.6-1.4c-0.9,0.1-1.3,0.2-2.1,0.3c0,0.6-0.1,0.9-0.1,1.5l-1.6,0.2
					c0.4-3.3,0.5-4.9,0.7-8.1c0.9-0.1,1.4-0.2,2.3-0.4C120.2,151.2,120.8,152.7,122.2,155.7L122.2,155.7z M117.8,153.9l1.6-0.3
					c-0.6-1.5-0.9-2.3-1.4-3.9C118,151.4,117.9,152.2,117.8,153.9L117.8,153.9z M123,147.3l1.5-0.4l2.1,7.7l-1.7,0.4L123,147.3z
					 M133.3,152.5c-0.2-0.2-0.4-0.5-0.5-0.9l-0.4-1.2c-0.3-0.7-0.7-0.8-1.4-0.6l-0.6,0.2l1.1,3.1l-1.7,0.6l-2.5-7.6
					c0.9-0.3,1.4-0.5,2.3-0.8c1.6-0.6,2.4-0.3,2.9,0.9l0.2,0.6c0.3,0.7,0.2,1.5-0.4,1.9c0.8-0.1,1.5,0.4,1.7,1.1l0.5,1.1
					c0.1,0.3,0.3,0.6,0.6,0.8C134.3,152.1,134,152.2,133.3,152.5L133.3,152.5z M129.1,146.7l0.8,2.3l0.6-0.2
					c0.6-0.2,0.9-0.6,0.6-1.1l-0.3-0.7c-0.1-0.4-0.5-0.6-0.8-0.6c-0.1,0-0.2,0-0.2,0.1L129.1,146.7z M140.9,145.6l0.5,0.9
					c0.6,1.1,0.2,2.2-1.4,3s-2.8,0.5-3.3-0.6l-1.8-3.8c-0.5-1.2-0.1-2.1,1.3-2.9s2.5-0.5,3.1,0.6l0.4,0.7l-1.4,0.8l-0.4-0.8
					c-0.2-0.4-0.8-0.5-1.2-0.3s-0.5,0.7-0.3,1.1l1.9,3.9c0.3,0.5,0.7,0.5,1.2,0.3s0.7-0.6,0.5-1.1l-0.5-1L140.9,145.6z M142,139
					l3.4,5.2c0.3,0.5,0.7,0.4,1.2,0.1s0.7-0.7,0.3-1.2l-3.5-5.1l1.3-0.9l3.6,4.9c0.8,1,0.4,2.2-1.1,3.2s-2.7,0.9-3.4-0.2l-3.2-5.2
					C141.2,139.5,141.5,139.4,142,139L142,139z M146.6,135.7c1.4-1.1,2.7-2.2,3.9-3.4l0.8,0.8c-0.5,0.5-0.8,0.7-1.3,1.2l4.6,5.1
					c-0.6,0.5-0.9,0.8-1.4,1.2l-4.4-5.2c-0.6,0.5-0.8,0.7-1.4,1.1L146.6,135.7z M153.8,128.7c1.1-1.2,2.2-1.4,3.2-0.6l0.2,0.1
					c-0.4,0.5-0.7,0.8-1.1,1.3l-0.3-0.2c-0.4-0.4-0.8-0.3-1.2,0.1s-0.4,0.8,0,1.2c1.2,1.1,3.8-1.4,5.6,0.1c1,0.8,0.9,2.1-0.4,3.5
					s-2.5,1.6-3.4,0.7l-0.4-0.3c0.5-0.5,0.7-0.8,1.2-1.3l0.4,0.4c0.4,0.4,0.8,0.3,1.2-0.2s0.5-0.9,0.1-1.3c-1.2-1.1-3.9,1.3-5.5-0.3
					C152.6,131.1,152.7,130,153.8,128.7L153.8,128.7z M107.6,132c-0.9-1.1-2.4-1.7-3.8-1.5c-2.3,0.4-5.5,3.9-5.5,3.9
					s-1.9,2.1-3.6,1.6s-1-3-1-3c-1.3,0.3-2,1.6-1.7,2.9c0,0.2,0.1,0.3,0.2,0.4c1.1,2.6,5.5,2.4,7.1,2.1c3.1-0.4,6-1.8,8.3-4
					c2.3,2.2,5.2,3.6,8.3,4c1.6,0.3,6,0.5,7.1-2.1c0.5-1.2,0-2.6-1.2-3.1c-0.1-0.1-0.2-0.1-0.4-0.1c0,0,0.7,2.4-1,3
					s-3.6-1.6-3.6-1.6s-3.1-3.5-5.5-3.9C110,130.4,108.6,130.9,107.6,132z"/>
			</g>
		</g>
	</g>
	<g id="Layer_3">
		<text transform="matrix(1 0 0 1 26.0008 89.6139)" class="st4 st5 st6">Simar</text>
		<path class="st3" d="M81.9,122.5c-8.7-11.5-27.3-12-49.5-10.4c-7.9,0.6-14.3-1.6-15.9-4c-2-3-4.7-2.1-8.1-0.8s-4.7-3.5-4.7-3.5
			c1.5,1.2,3.7,0.9,4.9-0.6c0.1-0.1,0.2-0.2,0.2-0.4c2.3-3.1,0.6-7.2-3.9-6.4c-4.8,0.7-5.9,6.5-4.1,10.8c2.3,5.5,7.2,8.4,25.2,7
			c24.5-2,45.5-2.7,54.6,9.3c0.3,0.3,0.8,0.4,1.1,0.1C82.1,123.3,82.2,122.8,81.9,122.5L81.9,122.5z"/>
		<path class="st3" d="M133.9,123.6c0.3,0.3,0.8,0.2,1.1-0.2c9.1-12,30.1-11.3,54.6-9.3c18,1.5,22.9-1.4,25.3-7
			c1.8-4.3,0.6-10.1-4.1-10.8c-4.6-0.7-6.2,3.4-3.9,6.4c1,1.7,3.1,2.2,4.7,1.2c0.1-0.1,0.3-0.2,0.4-0.2c0,0-1.3,4.8-4.7,3.5
			s-6.1-2.3-8.1,0.8c-1.6,2.4-8,4.6-15.9,4c-22.2-1.5-40.7-1.1-49.5,10.5C133.4,122.9,133.5,123.4,133.9,123.6L133.9,123.6z"/>
		<text transform="matrix(1 0 0 1 56.0002 148.333)" class="st7 st8 st9">Monitoreo marítimo</text>
		<text transform="matrix(1 0 0 1 84.6667 14.9997)" class="st10 st8 st9">Sistema</text>
		<g>
			<path class="st7" d="M125.6,116.2c0.2,0,0.4,0,0.5,0c0.8,0,1.1,0.3,0.9,1c-0.7,4-2,7.7-4.2,11.1c-0.5,0.9-0.6,1.6,0,2.4
				c0.3,0.3,0.6,0.7,0.8,1.2c0.1,0.3,0.2,0.8,0.1,1c-0.2,0.3-0.6,0.5-1,0.5c-1.9-0.1-3.9-0.3-5.8-0.4c-3.7-0.3-7.4-0.6-11-0.9
				c-3.5-0.3-7-0.5-10.5-0.8c-1.1-0.1-1.6-0.6-1.9-1.7c-0.1-0.7-0.2-1.3-0.2-2c0-0.9,0.3-1.3,1.2-1.5c4.4-1,8.5-3.1,12.5-5.1
				c4.9-2.4,10.1-3.8,15.5-4.4C123.6,116.3,124.6,116.2,125.6,116.2C125.6,116.1,125.6,116.1,125.6,116.2z M118.2,125.8
				c-0.7-0.3-1-0.7-1.1-1.3c-0.1-0.3-0.2-0.7-0.6-0.6c-0.2,0.1-0.4,0.5-0.3,0.8c0.1,1.3,1.2,2.2,2.5,2.2s2.4-0.9,2.6-2.1
				c0.1-0.3,0.1-0.8-0.4-0.9s-0.5,0.3-0.6,0.7c-0.1,0.6-0.4,1.1-1.1,1.2c0-0.9,0-1.7,0-2.6c0-0.3,0.1-0.6,0.3-0.8
				c0.4-0.5,0.4-1.1,0-1.5s-1.1-0.4-1.5,0s-0.4,1-0.1,1.5c0.1,0.2,0.3,0.4,0.3,0.6C118.2,123.9,118.2,124.8,118.2,125.8z"/>
			<path class="st7" d="M96.4,124.5c0-1.7,0.1-3.2,0-4.7s0.4-2.5,1.7-3.3c1.1-0.7,2.2-1.1,3.5-1c0.7,0.1,1.4,0,2.2,0
				c0-0.8,0-1.4,0-2.1c1.4,0,2.7,0,4.1,0c0,0.7,0,1.4,0,2.1c1,0,1.9,0,2.8,0c1.1,0,1.8,1.1,1.3,2.1c-0.1,0.1-0.2,0.2-0.4,0.3
				c-3.4,1.5-6.8,3.1-10.2,4.6C99.9,123.1,98.3,123.7,96.4,124.5z"/>
			<path class="st7" d="M105.1,107.2c0.6,0.2,1.1,0.5,0.9,1.2c-0.1,0.3-0.5,0.7-0.8,0.8c-0.7,0.2-1-0.4-1.1-0.7
				c-0.7-0.3-1.2-0.5-1.7-0.7c-0.1-0.1-0.3-0.1-0.5,0c-1.3,0.2-2.2-0.4-2.6-1.5c-0.3-1,0.3-2.1,1.2-2.5c1.1-0.4,2.1,0,2.8,1.1
				c0.1,0.1,0.3,0.3,0.4,0.3C104.9,105.4,105.3,106,105.1,107.2z"/>
			<path class="st7" d="M108,112.2c-1.4,0-2.7,0-4.1,0c0-0.5-0.1-0.9,0-1.3c0.1-0.5,0.5-0.7,1-0.7c0.6,0,1.2,0,1.8,0
				c0.9,0,1.2,0.4,1.3,1.3C108,111.6,108,111.8,108,112.2z"/>
			<path class="st11" d="M118.2,125.8c0-1,0-1.9,0-2.8c0-0.2-0.2-0.4-0.3-0.6c-0.4-0.5-0.4-1.1,0.1-1.5c0.4-0.4,1.1-0.4,1.5,0
				s0.4,1,0,1.5c-0.2,0.2-0.3,0.5-0.3,0.8c0,0.8,0,1.7,0,2.6c0.7-0.2,1-0.6,1.1-1.2c0.1-0.4,0.1-0.8,0.6-0.7
				c0.5,0.1,0.4,0.5,0.4,0.9c-0.2,1.2-1.3,2.1-2.6,2.1c-1.3,0-2.3-0.9-2.5-2.2c0-0.3,0.1-0.7,0.3-0.8c0.4-0.2,0.5,0.2,0.6,0.6
				C117.2,125.1,117.5,125.5,118.2,125.8z"/>
		</g>
	</g>
</g>
<g id="Layer_2_2_">
	<text transform="matrix(1 0 0 1 25.96 89.5905)" class="st12 st5 st6">Simar</text>
	<path class="st12" d="M81.9,122.5c-8.7-11.5-27.3-12-49.5-10.4c-7.9,0.6-14.3-1.6-15.9-4c-2-3-4.7-2.1-8.1-0.8
		c-3.4,1.3-4.7-3.5-4.7-3.5c1.5,1.2,3.7,0.9,4.9-0.6c0.1-0.1,0.2-0.2,0.2-0.4c2.3-3.1,0.6-7.2-3.9-6.4c-4.8,0.7-5.9,6.5-4.1,10.8
		c2.3,5.5,7.2,8.4,25.2,7c24.5-2,45.5-2.7,54.6,9.3c0.3,0.3,0.8,0.4,1.1,0.1C82.1,123.3,82.2,122.8,81.9,122.5L81.9,122.5z"/>
	<path class="st12" d="M133.9,123.6c0.3,0.3,0.8,0.2,1.1-0.2c9.1-12,30.1-11.3,54.6-9.3c18,1.5,22.9-1.4,25.3-7
		c1.8-4.3,0.6-10.1-4.1-10.8c-4.6-0.7-6.2,3.4-3.9,6.4c1,1.7,3.1,2.2,4.7,1.2c0.1-0.1,0.3-0.2,0.4-0.2c0,0-1.3,4.8-4.7,3.5
		s-6.1-2.3-8.1,0.8c-1.6,2.4-8,4.6-15.9,4c-22.2-1.5-40.7-1.1-49.5,10.5C133.4,122.9,133.5,123.4,133.9,123.6L133.9,123.6z"/>
	<text transform="matrix(1 0 0 1 55.9594 148.3096)" class="st13 st8 st9">Monitoreo marítimo</text>
	<g>
		<path class="st12" d="M125.6,116.2c0.2,0,0.4,0,0.5,0c0.8,0,1.1,0.3,0.9,1c-0.7,4-2,7.7-4.2,11.1c-0.5,0.9-0.6,1.6,0,2.4
			c0.3,0.3,0.6,0.7,0.8,1.2c0.1,0.3,0.2,0.8,0.1,1c-0.2,0.3-0.6,0.5-1,0.5c-1.9-0.1-3.9-0.3-5.8-0.4c-3.7-0.3-7.4-0.6-11-0.9
			c-3.5-0.3-7-0.5-10.5-0.8c-1.1-0.1-1.6-0.6-1.9-1.7c-0.1-0.7-0.2-1.3-0.2-2c0-0.9,0.3-1.3,1.2-1.5c4.4-1,8.5-3.1,12.5-5.1
			c4.9-2.4,10.1-3.8,15.5-4.4C123.6,116.3,124.6,116.2,125.6,116.2C125.6,116.1,125.6,116.1,125.6,116.2z M118.2,125.8
			c-0.7-0.3-1-0.7-1.1-1.3c-0.1-0.3-0.2-0.7-0.6-0.6c-0.2,0.1-0.4,0.5-0.3,0.8c0.1,1.3,1.2,2.2,2.5,2.2s2.4-0.9,2.6-2.1
			c0.1-0.3,0.1-0.8-0.4-0.9c-0.5-0.1-0.5,0.3-0.6,0.7c-0.1,0.6-0.4,1.1-1.1,1.2c0-0.9,0-1.7,0-2.6c0-0.3,0.1-0.6,0.3-0.8
			c0.4-0.5,0.4-1.1,0-1.5c-0.4-0.4-1.1-0.4-1.5,0c-0.4,0.4-0.4,1-0.1,1.5c0.1,0.2,0.3,0.4,0.3,0.6
			C118.2,123.9,118.2,124.8,118.2,125.8z"/>
		<path class="st12" d="M96.4,124.5c0-1.7,0.1-3.2,0-4.7s0.4-2.5,1.7-3.3c1.1-0.7,2.2-1.1,3.5-1c0.7,0.1,1.4,0,2.2,0
			c0-0.8,0-1.4,0-2.1c1.4,0,2.7,0,4.1,0c0,0.7,0,1.4,0,2.1c1,0,1.9,0,2.8,0c1.1,0,1.8,1.1,1.3,2.1c-0.1,0.1-0.2,0.2-0.4,0.3
			c-3.4,1.5-6.8,3.1-10.2,4.6C99.9,123.1,98.3,123.7,96.4,124.5z"/>
		<path class="st12" d="M105.1,107.2c0.6,0.2,1.1,0.5,0.9,1.2c-0.1,0.3-0.5,0.7-0.8,0.8c-0.7,0.2-1-0.4-1.1-0.7
			c-0.7-0.3-1.2-0.5-1.7-0.7c-0.1-0.1-0.3-0.1-0.5,0c-1.3,0.2-2.2-0.4-2.6-1.5c-0.3-1,0.3-2.1,1.2-2.5c1.1-0.4,2.1,0,2.8,1.1
			c0.1,0.1,0.3,0.3,0.4,0.3C104.9,105.4,105.3,106,105.1,107.2z"/>
		<path class="st12" d="M108,112.2c-1.4,0-2.7,0-4.1,0c0-0.5-0.1-0.9,0-1.3c0.1-0.5,0.5-0.7,1-0.7c0.6,0,1.2,0,1.8,0
			c0.9,0,1.2,0.4,1.3,1.3C108,111.6,108,111.8,108,112.2z"/>
		<path class="st12" d="M118.2,125.8c0-1,0-1.9,0-2.8c0-0.2-0.2-0.4-0.3-0.6c-0.4-0.5-0.4-1.1,0.1-1.5c0.4-0.4,1.1-0.4,1.5,0
			c0.4,0.4,0.4,1,0,1.5c-0.2,0.2-0.3,0.5-0.3,0.8c0,0.8,0,1.7,0,2.6c0.7-0.2,1-0.6,1.1-1.2c0.1-0.4,0.1-0.8,0.6-0.7s0.4,0.5,0.4,0.9
			c-0.2,1.2-1.3,2.1-2.6,2.1c-1.3,0-2.3-0.9-2.5-2.2c0-0.3,0.1-0.7,0.3-0.8c0.4-0.2,0.5,0.2,0.6,0.6
			C117.2,125.1,117.5,125.5,118.2,125.8z"/>
	</g>
</g>
</svg>
